<?xml version="1.0" encoding="UTF-8" standalone="no"?>
<!DOCTYPE svg PUBLIC "-//W3C//DTD SVG 1.1//EN"
 "http://www.w3.org/Graphics/SVG/1.1/DTD/svg11.dtd">
<!-- Generated by graphviz version 11.0.0 (20240428.1522)
 -->
<!-- Title: dependency&#45;cruiser output Pages: 1 -->
<svg width="601pt" height="595pt"
 viewBox="0.00 0.00 601.25 595.00" xmlns="http://www.w3.org/2000/svg" xmlns:xlink="http://www.w3.org/1999/xlink">
<g id="graph0" class="graph" transform="scale(1 1) rotate(0) translate(4 591)">
<title>dependency&#45;cruiser output</title>
<polygon fill="white" stroke="none" points="-4,4 -4,-591 597.25,-591 597.25,4 -4,4"/>
<g id="clust1" class="cluster">
<title>cluster_node_modules</title>
<path fill="#ffffff" stroke="black" stroke-width="2" d="M313.5,-8C313.5,-8 392,-8 392,-8 398,-8 404,-14 404,-20 404,-20 404,-51 404,-51 404,-57 398,-63 392,-63 392,-63 313.5,-63 313.5,-63 307.5,-63 301.5,-57 301.5,-51 301.5,-51 301.5,-20 301.5,-20 301.5,-14 307.5,-8 313.5,-8"/>
<text text-anchor="middle" x="352.75" y="-50.45" font-family="Helvetica,sans-Serif" font-weight="bold" font-size="9.00">node_modules</text>
</g>
<g id="clust2" class="cluster">
<title>cluster_src</title>
<path fill="#ffffff" stroke="black" stroke-width="2" d="M20,-71C20,-71 573.25,-71 573.25,-71 579.25,-71 585.25,-77 585.25,-83 585.25,-83 585.25,-567 585.25,-567 585.25,-573 579.25,-579 573.25,-579 573.25,-579 20,-579 20,-579 14,-579 8,-573 8,-567 8,-567 8,-83 8,-83 8,-77 14,-71 20,-71"/>
<text text-anchor="middle" x="296.62" y="-566.45" font-family="Helvetica,sans-Serif" font-weight="bold" font-size="9.00">src</text>
</g>
<g id="clust3" class="cluster">
<title>cluster_src/components</title>
<path fill="#ffffff" stroke="black" stroke-width="2" d="M435.38,-379C435.38,-379 565.25,-379 565.25,-379 571.25,-379 577.25,-385 577.25,-391 577.25,-391 577.25,-484 577.25,-484 577.25,-490 571.25,-496 565.25,-496 565.25,-496 435.38,-496 435.38,-496 429.38,-496 423.38,-490 423.38,-484 423.38,-484 423.38,-391 423.38,-391 423.38,-385 429.38,-379 435.38,-379"/>
<text text-anchor="middle" x="500.31" y="-483.45" font-family="Helvetica,sans-Serif" font-weight="bold" font-size="9.00">components</text>
</g>
<g id="clust4" class="cluster">
<title>cluster_src/controllers</title>
<path fill="#ffffff" stroke="black" stroke-width="2" d="M192.5,-219C192.5,-219 281.5,-219 281.5,-219 287.5,-219 293.5,-225 293.5,-231 293.5,-231 293.5,-355 293.5,-355 293.5,-361 287.5,-367 281.5,-367 281.5,-367 192.5,-367 192.5,-367 186.5,-367 180.5,-361 180.5,-355 180.5,-355 180.5,-231 180.5,-231 180.5,-225 186.5,-219 192.5,-219"/>
<text text-anchor="middle" x="237" y="-354.45" font-family="Helvetica,sans-Serif" font-weight="bold" font-size="9.00">controllers</text>
</g>
<g id="clust5" class="cluster">
<title>cluster_src/dao</title>
<path fill="#ffffff" stroke="black" stroke-width="2" d="M319.12,-250C319.12,-250 386.38,-250 386.38,-250 392.38,-250 398.38,-256 398.38,-262 398.38,-262 398.38,-386 398.38,-386 398.38,-392 392.38,-398 386.38,-398 386.38,-398 319.12,-398 319.12,-398 313.12,-398 307.12,-392 307.12,-386 307.12,-386 307.12,-262 307.12,-262 307.12,-256 313.12,-250 319.12,-250"/>
<text text-anchor="middle" x="352.75" y="-385.45" font-family="Helvetica,sans-Serif" font-weight="bold" font-size="9.00">dao</text>
</g>
<g id="clust6" class="cluster">
<title>cluster_src/db</title>
<path fill="#ffffff" stroke="black" stroke-width="2" d="M327.38,-79C327.38,-79 481.38,-79 481.38,-79 487.38,-79 493.38,-85 493.38,-91 493.38,-91 493.38,-122 493.38,-122 493.38,-128 487.38,-134 481.38,-134 481.38,-134 327.38,-134 327.38,-134 321.38,-134 315.38,-128 315.38,-122 315.38,-122 315.38,-91 315.38,-91 315.38,-85 321.38,-79 327.38,-79"/>
<text text-anchor="middle" x="404.38" y="-121.45" font-family="Helvetica,sans-Serif" font-weight="bold" font-size="9.00">db</text>
</g>
<g id="clust7" class="cluster">
<title>cluster_src/errors</title>
<path fill="#ffffff" stroke="black" stroke-width="2" d="M424,-178C424,-178 492.75,-178 492.75,-178 498.75,-178 504.75,-184 504.75,-190 504.75,-190 504.75,-314 504.75,-314 504.75,-320 498.75,-326 492.75,-326 492.75,-326 424,-326 424,-326 418,-326 412,-320 412,-314 412,-314 412,-190 412,-190 412,-184 418,-178 424,-178"/>
<text text-anchor="middle" x="458.38" y="-313.45" font-family="Helvetica,sans-Serif" font-weight="bold" font-size="9.00">errors</text>
</g>
<g id="clust8" class="cluster">
<title>cluster_src/routers</title>
<path fill="#ffffff" stroke="black" stroke-width="2" d="M90,-375C90,-375 260,-375 260,-375 266,-375 272,-381 272,-387 272,-387 272,-511 272,-511 272,-517 266,-523 260,-523 260,-523 90,-523 90,-523 84,-523 78,-517 78,-511 78,-511 78,-387 78,-387 78,-381 84,-375 90,-375"/>
<text text-anchor="middle" x="175" y="-510.45" font-family="Helvetica,sans-Serif" font-weight="bold" font-size="9.00">routers</text>
</g>
<!-- node_modules/express&#45;validator -->
<g id="node1" class="node">
<title>node_modules/express&#45;validator</title>
<g id="a_node1"><a xlink:href="https://www.npmjs.com/package/express-validator" xlink:title="express&#45;validator">
<polygon fill="#c40b0a" fill-opacity="0.101961" stroke="black" points="396,-35.62 311.64,-35.62 309.5,-33.49 309.5,-16.38 393.86,-16.38 396,-18.51 396,-35.62"/>
<polyline fill="none" stroke="black" points="393.86,-33.49 309.5,-33.49"/>
<polyline fill="none" stroke="black" points="393.86,-33.49 393.86,-16.38"/>
<polyline fill="none" stroke="black" points="393.86,-33.49 396,-35.62"/>
<text text-anchor="start" x="317.5" y="-23.07" font-family="Helvetica,sans-Serif" font-size="9.00" fill="#c40b0a">express&#45;validator</text>
</a>
</g>
</g>
<!-- src/components/cart.ts -->
<g id="node2" class="node">
<title>src/components/cart.ts</title>
<g id="a_node2"><a xlink:href="src/components/cart.ts" xlink:title="cart.ts">
<path fill="#ddfeff" stroke="black" d="M478.96,-406.62C478.96,-406.62 437.79,-406.62 437.79,-406.62 434.58,-406.62 431.38,-403.42 431.38,-400.21 431.38,-400.21 431.38,-393.79 431.38,-393.79 431.38,-390.58 434.58,-387.38 437.79,-387.38 437.79,-387.38 478.96,-387.38 478.96,-387.38 482.17,-387.38 485.38,-390.58 485.38,-393.79 485.38,-393.79 485.38,-400.21 485.38,-400.21 485.38,-403.42 482.17,-406.62 478.96,-406.62"/>
<text text-anchor="start" x="446" y="-394.07" font-family="Helvetica,sans-Serif" font-size="9.00">cart.ts</text>
</a>
</g>
</g>
<!-- src/components/product.ts -->
<g id="node3" class="node">
<title>src/components/product.ts</title>
<g id="a_node3"><a xlink:href="src/components/product.ts" xlink:title="product.ts">
<path fill="#ddfeff" stroke="black" d="M562.83,-406.62C562.83,-406.62 519.17,-406.62 519.17,-406.62 515.96,-406.62 512.75,-403.42 512.75,-400.21 512.75,-400.21 512.75,-393.79 512.75,-393.79 512.75,-390.58 515.96,-387.38 519.17,-387.38 519.17,-387.38 562.83,-387.38 562.83,-387.38 566.04,-387.38 569.25,-390.58 569.25,-393.79 569.25,-393.79 569.25,-400.21 569.25,-400.21 569.25,-403.42 566.04,-406.62 562.83,-406.62"/>
<text text-anchor="start" x="520.75" y="-394.07" font-family="Helvetica,sans-Serif" font-size="9.00">product.ts</text>
</a>
</g>
</g>
<!-- src/components/cart.ts&#45;&gt;src/components/product.ts -->
<g id="edge1" class="edge">
<title>src/components/cart.ts&#45;&gt;src/components/product.ts</title>
<path fill="none" stroke="#000000" stroke-width="2" stroke-opacity="0.200000" d="M485.77,-397C491.51,-397 497.68,-397 503.73,-397"/>
<polygon fill="#000000" fill-opacity="0.200000" stroke="#000000" stroke-width="2" stroke-opacity="0.200000" points="503.41,-399.1 509.41,-397 503.41,-394.9 503.41,-399.1"/>
</g>
<!-- src/components/review.ts -->
<g id="node4" class="node">
<title>src/components/review.ts</title>
<g id="a_node4"><a xlink:href="src/components/review.ts" xlink:title="review.ts">
<path fill="#ddfeff" stroke="black" d="M478.96,-468.62C478.96,-468.62 437.79,-468.62 437.79,-468.62 434.58,-468.62 431.38,-465.42 431.38,-462.21 431.38,-462.21 431.38,-455.79 431.38,-455.79 431.38,-452.58 434.58,-449.38 437.79,-449.38 437.79,-449.38 478.96,-449.38 478.96,-449.38 482.17,-449.38 485.38,-452.58 485.38,-455.79 485.38,-455.79 485.38,-462.21 485.38,-462.21 485.38,-465.42 482.17,-468.62 478.96,-468.62"/>
<text text-anchor="start" x="440.38" y="-456.07" font-family="Helvetica,sans-Serif" font-size="9.00">review.ts</text>
</a>
</g>
</g>
<!-- src/components/user.ts -->
<g id="node5" class="node">
<title>src/components/user.ts</title>
<g id="a_node5"><a xlink:href="src/components/user.ts" xlink:title="user.ts">
<path fill="#ddfeff" stroke="black" d="M478.96,-437.62C478.96,-437.62 437.79,-437.62 437.79,-437.62 434.58,-437.62 431.38,-434.42 431.38,-431.21 431.38,-431.21 431.38,-424.79 431.38,-424.79 431.38,-421.58 434.58,-418.38 437.79,-418.38 437.79,-418.38 478.96,-418.38 478.96,-418.38 482.17,-418.38 485.38,-421.58 485.38,-424.79 485.38,-424.79 485.38,-431.21 485.38,-431.21 485.38,-434.42 482.17,-437.62 478.96,-437.62"/>
<text text-anchor="start" x="444.12" y="-425.07" font-family="Helvetica,sans-Serif" font-size="9.00">user.ts</text>
</a>
</g>
</g>
<!-- src/controllers/cartController.ts -->
<g id="node6" class="node">
<title>src/controllers/cartController.ts</title>
<g id="a_node6"><a xlink:href="src/controllers/cartController.ts" xlink:title="cartController.ts">
<path fill="#ddfeff" stroke="black" d="M271.21,-277.62C271.21,-277.62 202.79,-277.62 202.79,-277.62 199.58,-277.62 196.38,-274.42 196.38,-271.21 196.38,-271.21 196.38,-264.79 196.38,-264.79 196.38,-261.58 199.58,-258.38 202.79,-258.38 202.79,-258.38 271.21,-258.38 271.21,-258.38 274.42,-258.38 277.62,-261.58 277.62,-264.79 277.62,-264.79 277.62,-271.21 277.62,-271.21 277.62,-274.42 274.42,-277.62 271.21,-277.62"/>
<text text-anchor="start" x="204.38" y="-265.07" font-family="Helvetica,sans-Serif" font-size="9.00">cartController.ts</text>
</a>
</g>
</g>
<!-- src/controllers/cartController.ts&#45;&gt;src/components/cart.ts -->
<g id="edge2" class="edge">
<title>src/controllers/cartController.ts&#45;&gt;src/components/cart.ts</title>
<path fill="none" stroke="#000000" stroke-width="2" stroke-opacity="0.200000" d="M277.99,-272.32C283.95,-274.66 289.45,-278.06 293.5,-283 310.17,-303.32 282.3,-383.06 301.5,-401 318.32,-416.72 381.63,-409.78 422.21,-403.35"/>
<polygon fill="#000000" fill-opacity="0.200000" stroke="#000000" stroke-width="2" stroke-opacity="0.200000" points="422.42,-405.45 428.01,-402.41 421.75,-401.3 422.42,-405.45"/>
</g>
<!-- src/controllers/cartController.ts&#45;&gt;src/components/user.ts -->
<g id="edge3" class="edge">
<title>src/controllers/cartController.ts&#45;&gt;src/components/user.ts</title>
<path fill="none" stroke="#000000" stroke-width="2" stroke-opacity="0.200000" d="M278.01,-272.31C283.97,-274.64 289.46,-278.05 293.5,-283 311.25,-304.73 282.24,-388.6 301.5,-409 309.64,-417.63 378.82,-423.31 422.23,-426.06"/>
<polygon fill="#000000" fill-opacity="0.200000" stroke="#000000" stroke-width="2" stroke-opacity="0.200000" points="421.94,-428.15 428.05,-426.42 422.19,-423.95 421.94,-428.15"/>
</g>
<!-- src/dao/cartDAO.ts -->
<g id="node7" class="node">
<title>src/dao/cartDAO.ts</title>
<g id="a_node7"><a xlink:href="src/dao/cartDAO.ts" xlink:title="cartDAO.ts">
<path fill="#ddfeff" stroke="black" d="M376.08,-308.62C376.08,-308.62 329.42,-308.62 329.42,-308.62 326.21,-308.62 323,-305.42 323,-302.21 323,-302.21 323,-295.79 323,-295.79 323,-292.58 326.21,-289.38 329.42,-289.38 329.42,-289.38 376.08,-289.38 376.08,-289.38 379.29,-289.38 382.5,-292.58 382.5,-295.79 382.5,-295.79 382.5,-302.21 382.5,-302.21 382.5,-305.42 379.29,-308.62 376.08,-308.62"/>
<text text-anchor="start" x="331" y="-296.07" font-family="Helvetica,sans-Serif" font-size="9.00">cartDAO.ts</text>
</a>
</g>
</g>
<!-- src/controllers/cartController.ts&#45;&gt;src/dao/cartDAO.ts -->
<g id="edge4" class="edge">
<title>src/controllers/cartController.ts&#45;&gt;src/dao/cartDAO.ts</title>
<path fill="none" stroke="#000000" stroke-width="2" stroke-opacity="0.200000" d="M275.32,-278.06C281.4,-279.71 287.63,-281.4 293.5,-283 300.19,-284.82 307.3,-286.77 314.18,-288.66"/>
<polygon fill="#000000" fill-opacity="0.200000" stroke="#000000" stroke-width="2" stroke-opacity="0.200000" points="313.46,-290.64 319.8,-290.2 314.57,-286.59 313.46,-290.64"/>
</g>
<!-- src/dao/productDAO.ts -->
<g id="node8" class="node">
<title>src/dao/productDAO.ts</title>
<g id="a_node8"><a xlink:href="src/dao/productDAO.ts" xlink:title="productDAO.ts">
<path fill="#ddfeff" stroke="black" d="M383.96,-277.62C383.96,-277.62 321.54,-277.62 321.54,-277.62 318.33,-277.62 315.12,-274.42 315.12,-271.21 315.12,-271.21 315.12,-264.79 315.12,-264.79 315.12,-261.58 318.33,-258.38 321.54,-258.38 321.54,-258.38 383.96,-258.38 383.96,-258.38 387.17,-258.38 390.38,-261.58 390.38,-264.79 390.38,-264.79 390.38,-271.21 390.38,-271.21 390.38,-274.42 387.17,-277.62 383.96,-277.62"/>
<text text-anchor="start" x="323.12" y="-265.07" font-family="Helvetica,sans-Serif" font-size="9.00">productDAO.ts</text>
</a>
</g>
</g>
<!-- src/controllers/cartController.ts&#45;&gt;src/dao/productDAO.ts -->
<g id="edge5" class="edge">
<title>src/controllers/cartController.ts&#45;&gt;src/dao/productDAO.ts</title>
<path fill="none" stroke="#000000" stroke-width="2" stroke-opacity="0.200000" d="M278.1,-268C287.03,-268 296.55,-268 305.7,-268"/>
<polygon fill="#000000" fill-opacity="0.200000" stroke="#000000" stroke-width="2" stroke-opacity="0.200000" points="305.64,-270.1 311.64,-268 305.64,-265.9 305.64,-270.1"/>
</g>
<!-- src/errors/cartError.ts -->
<g id="node9" class="node">
<title>src/errors/cartError.ts</title>
<g id="a_node9"><a xlink:href="src/errors/cartError.ts" xlink:title="cartError.ts">
<path fill="#ddfeff" stroke="black" d="M482.46,-267.62C482.46,-267.62 434.29,-267.62 434.29,-267.62 431.08,-267.62 427.88,-264.42 427.88,-261.21 427.88,-261.21 427.88,-254.79 427.88,-254.79 427.88,-251.58 431.08,-248.38 434.29,-248.38 434.29,-248.38 482.46,-248.38 482.46,-248.38 485.67,-248.38 488.88,-251.58 488.88,-254.79 488.88,-254.79 488.88,-261.21 488.88,-261.21 488.88,-264.42 485.67,-267.62 482.46,-267.62"/>
<text text-anchor="start" x="435.88" y="-255.07" font-family="Helvetica,sans-Serif" font-size="9.00">cartError.ts</text>
</a>
</g>
</g>
<!-- src/controllers/cartController.ts&#45;&gt;src/errors/cartError.ts -->
<g id="edge6" class="edge">
<title>src/controllers/cartController.ts&#45;&gt;src/errors/cartError.ts</title>
<path fill="none" stroke="#000000" stroke-width="2" stroke-opacity="0.200000" d="M277.92,-261.65C283.54,-259.53 288.94,-256.73 293.5,-253 299.65,-247.97 294.74,-241.18 301.5,-237 340.25,-213.05 360.78,-222.59 404,-237 408.22,-238.41 408.06,-240.94 412,-243 414.43,-244.27 416.98,-245.46 419.59,-246.57"/>
<polygon fill="#000000" fill-opacity="0.200000" stroke="#000000" stroke-width="2" stroke-opacity="0.200000" points="418.34,-248.34 424.69,-248.56 419.87,-244.42 418.34,-248.34"/>
</g>
<!-- src/errors/productError.ts -->
<g id="node10" class="node">
<title>src/errors/productError.ts</title>
<g id="a_node10"><a xlink:href="src/errors/productError.ts" xlink:title="productError.ts">
<path fill="#ddfeff" stroke="black" d="M490.33,-205.62C490.33,-205.62 426.42,-205.62 426.42,-205.62 423.21,-205.62 420,-202.42 420,-199.21 420,-199.21 420,-192.79 420,-192.79 420,-189.58 423.21,-186.38 426.42,-186.38 426.42,-186.38 490.33,-186.38 490.33,-186.38 493.54,-186.38 496.75,-189.58 496.75,-192.79 496.75,-192.79 496.75,-199.21 496.75,-199.21 496.75,-202.42 493.54,-205.62 490.33,-205.62"/>
<text text-anchor="start" x="428" y="-193.07" font-family="Helvetica,sans-Serif" font-size="9.00">productError.ts</text>
</a>
</g>
</g>
<!-- src/controllers/cartController.ts&#45;&gt;src/errors/productError.ts -->
<g id="edge7" class="edge">
<title>src/controllers/cartController.ts&#45;&gt;src/errors/productError.ts</title>
<path fill="none" stroke="#000000" stroke-width="2" stroke-opacity="0.200000" d="M277.9,-262.87C283.72,-260.62 289.2,-257.45 293.5,-253 304.3,-241.84 290.07,-229.5 301.5,-219 330.53,-192.33 376.28,-188.4 410.72,-190.06"/>
<polygon fill="#000000" fill-opacity="0.200000" stroke="#000000" stroke-width="2" stroke-opacity="0.200000" points="410.52,-192.15 416.64,-190.43 410.78,-187.96 410.52,-192.15"/>
</g>
<!-- src/dao/cartDAO.ts&#45;&gt;src/components/cart.ts -->
<g id="edge22" class="edge">
<title>src/dao/cartDAO.ts&#45;&gt;src/components/cart.ts</title>
<path fill="none" stroke="#000000" stroke-width="2" stroke-opacity="0.200000" d="M382.9,-301.99C390.76,-304.18 398.58,-307.86 404,-314 418.31,-330.22 400.89,-343.44 412,-362 416.75,-369.94 424.04,-376.73 431.39,-382.16"/>
<polygon fill="#000000" fill-opacity="0.200000" stroke="#000000" stroke-width="2" stroke-opacity="0.200000" points="430.04,-383.77 436.18,-385.42 432.4,-380.3 430.04,-383.77"/>
</g>
<!-- src/dao/cartDAO.ts&#45;&gt;src/components/user.ts -->
<g id="edge23" class="edge">
<title>src/dao/cartDAO.ts&#45;&gt;src/components/user.ts</title>
<path fill="none" stroke="#000000" stroke-width="2" stroke-opacity="0.200000" d="M382.97,-301.64C390.93,-303.8 398.79,-307.56 404,-314 417.89,-331.15 398.36,-395.65 412,-413 414.87,-416.66 418.67,-419.43 422.83,-421.54"/>
<polygon fill="#000000" fill-opacity="0.200000" stroke="#000000" stroke-width="2" stroke-opacity="0.200000" points="422.01,-423.47 428.36,-423.7 423.54,-419.56 422.01,-423.47"/>
</g>
<!-- src/dao/cartDAO.ts&#45;&gt;src/errors/cartError.ts -->
<g id="edge25" class="edge">
<title>src/dao/cartDAO.ts&#45;&gt;src/errors/cartError.ts</title>
<path fill="none" stroke="#000000" stroke-width="2" stroke-opacity="0.200000" d="M382.87,-293.77C390.2,-291.55 397.76,-288.42 404,-284 408.93,-280.51 407.12,-276.56 412,-273 414.35,-271.29 416.9,-269.76 419.56,-268.41"/>
<polygon fill="#000000" fill-opacity="0.200000" stroke="#000000" stroke-width="2" stroke-opacity="0.200000" points="420.32,-270.36 424.98,-266.04 418.64,-266.52 420.32,-270.36"/>
</g>
<!-- src/dao/cartDAO.ts&#45;&gt;src/errors/productError.ts -->
<g id="edge26" class="edge">
<title>src/dao/cartDAO.ts&#45;&gt;src/errors/productError.ts</title>
<path fill="none" stroke="#000000" stroke-width="2" stroke-opacity="0.200000" d="M382.85,-296.27C390.81,-294.1 398.69,-290.36 404,-284 424.9,-258.93 391.47,-236.37 412,-211 412.41,-210.49 412.84,-210 413.28,-209.53"/>
<polygon fill="#000000" fill-opacity="0.200000" stroke="#000000" stroke-width="2" stroke-opacity="0.200000" points="414.14,-211.53 417.5,-206.14 411.51,-208.26 414.14,-211.53"/>
</g>
<!-- src/db/db.ts -->
<g id="node19" class="node">
<title>src/db/db.ts</title>
<g id="a_node19"><a xlink:href="src/db/db.ts" xlink:title="db.ts">
<path fill="#ddfeff" stroke="black" d="M478.96,-106.62C478.96,-106.62 437.79,-106.62 437.79,-106.62 434.58,-106.62 431.38,-103.42 431.38,-100.21 431.38,-100.21 431.38,-93.79 431.38,-93.79 431.38,-90.58 434.58,-87.38 437.79,-87.38 437.79,-87.38 478.96,-87.38 478.96,-87.38 482.17,-87.38 485.38,-90.58 485.38,-93.79 485.38,-93.79 485.38,-100.21 485.38,-100.21 485.38,-103.42 482.17,-106.62 478.96,-106.62"/>
<text text-anchor="start" x="448.25" y="-94.08" font-family="Helvetica,sans-Serif" font-size="9.00">db.ts</text>
</a>
</g>
</g>
<!-- src/dao/cartDAO.ts&#45;&gt;src/db/db.ts -->
<g id="edge24" class="edge">
<title>src/dao/cartDAO.ts&#45;&gt;src/db/db.ts</title>
<path fill="none" stroke="#000000" stroke-width="2" stroke-opacity="0.200000" d="M383,-296.39C390.96,-294.22 398.81,-290.46 404,-284 419.21,-265.07 404.82,-198.2 412,-175 419.02,-152.31 433.63,-129.15 444.39,-114.02"/>
<polygon fill="#000000" fill-opacity="0.200000" stroke="#000000" stroke-width="2" stroke-opacity="0.200000" points="445.97,-115.42 447.81,-109.34 442.58,-112.94 445.97,-115.42"/>
</g>
<!-- src/dao/productDAO.ts&#45;&gt;src/components/product.ts -->
<g id="edge27" class="edge">
<title>src/dao/productDAO.ts&#45;&gt;src/components/product.ts</title>
<path fill="none" stroke="#000000" stroke-width="2" stroke-opacity="0.200000" d="M390.63,-273.73C395.68,-275.92 400.37,-278.92 404,-283 417.78,-298.51 399.82,-312.2 412,-329 418.42,-337.85 475.15,-366.04 510.9,-383.22"/>
<polygon fill="#000000" fill-opacity="0.200000" stroke="#000000" stroke-width="2" stroke-opacity="0.200000" points="509.57,-384.91 515.89,-385.61 511.39,-381.13 509.57,-384.91"/>
</g>
<!-- src/dao/productDAO.ts&#45;&gt;src/db/db.ts -->
<g id="edge28" class="edge">
<title>src/dao/productDAO.ts&#45;&gt;src/db/db.ts</title>
<path fill="none" stroke="#000000" stroke-width="2" stroke-opacity="0.200000" d="M359.77,-258.07C376.72,-230.09 425.05,-150.34 446.68,-114.65"/>
<polygon fill="#000000" fill-opacity="0.200000" stroke="#000000" stroke-width="2" stroke-opacity="0.200000" points="448.46,-115.77 449.77,-109.55 444.86,-113.59 448.46,-115.77"/>
</g>
<!-- src/controllers/productController.ts -->
<g id="node11" class="node">
<title>src/controllers/productController.ts</title>
<g id="a_node11"><a xlink:href="src/controllers/productController.ts" xlink:title="productController.ts">
<path fill="#ddfeff" stroke="black" d="M279.08,-246.62C279.08,-246.62 194.92,-246.62 194.92,-246.62 191.71,-246.62 188.5,-243.42 188.5,-240.21 188.5,-240.21 188.5,-233.79 188.5,-233.79 188.5,-230.58 191.71,-227.38 194.92,-227.38 194.92,-227.38 279.08,-227.38 279.08,-227.38 282.29,-227.38 285.5,-230.58 285.5,-233.79 285.5,-233.79 285.5,-240.21 285.5,-240.21 285.5,-243.42 282.29,-246.62 279.08,-246.62"/>
<text text-anchor="start" x="196.5" y="-234.07" font-family="Helvetica,sans-Serif" font-size="9.00">productController.ts</text>
</a>
</g>
</g>
<!-- src/controllers/productController.ts&#45;&gt;src/components/product.ts -->
<g id="edge8" class="edge">
<title>src/controllers/productController.ts&#45;&gt;src/components/product.ts</title>
<path fill="none" stroke="#000000" stroke-width="2" stroke-opacity="0.200000" d="M285.76,-229.37C288.63,-227.63 291.25,-225.52 293.5,-223 311.67,-202.57 280.95,-180.03 301.5,-162 318.51,-147.08 488.52,-159.23 504.75,-175 533.62,-203.04 538.85,-330.04 539.79,-378.31"/>
<polygon fill="#000000" fill-opacity="0.200000" stroke="#000000" stroke-width="2" stroke-opacity="0.200000" points="537.69,-378.11 539.89,-384.08 541.89,-378.05 537.69,-378.11"/>
</g>
<!-- src/controllers/productController.ts&#45;&gt;src/dao/productDAO.ts -->
<g id="edge9" class="edge">
<title>src/controllers/productController.ts&#45;&gt;src/dao/productDAO.ts</title>
<path fill="none" stroke="#000000" stroke-width="2" stroke-opacity="0.200000" d="M275.32,-247.06C281.4,-248.71 287.63,-250.4 293.5,-252 297.75,-253.16 302.18,-254.37 306.61,-255.58"/>
<polygon fill="#000000" fill-opacity="0.200000" stroke="#000000" stroke-width="2" stroke-opacity="0.200000" points="305.83,-257.54 312.17,-257.11 306.94,-253.49 305.83,-257.54"/>
</g>
<!-- src/controllers/productController.ts&#45;&gt;src/errors/productError.ts -->
<g id="edge10" class="edge">
<title>src/controllers/productController.ts&#45;&gt;src/errors/productError.ts</title>
<path fill="none" stroke="#000000" stroke-width="2" stroke-opacity="0.200000" d="M285.85,-229.07C288.66,-227.39 291.25,-225.39 293.5,-223 306.54,-209.17 286.86,-193.11 301.5,-181 337.32,-151.36 394.84,-168.01 429.08,-182.34"/>
<polygon fill="#000000" fill-opacity="0.200000" stroke="#000000" stroke-width="2" stroke-opacity="0.200000" points="428.15,-184.22 434.49,-184.69 429.82,-180.37 428.15,-184.22"/>
</g>
<!-- src/utilities.ts -->
<g id="node12" class="node">
<title>src/utilities.ts</title>
<g id="a_node12"><a xlink:href="src/utilities.ts" xlink:title="utilities.ts">
<path fill="#ddfeff" stroke="black" d="M373.83,-481.62C373.83,-481.62 331.67,-481.62 331.67,-481.62 328.46,-481.62 325.25,-478.42 325.25,-475.21 325.25,-475.21 325.25,-468.79 325.25,-468.79 325.25,-465.58 328.46,-462.38 331.67,-462.38 331.67,-462.38 373.83,-462.38 373.83,-462.38 377.04,-462.38 380.25,-465.58 380.25,-468.79 380.25,-468.79 380.25,-475.21 380.25,-475.21 380.25,-478.42 377.04,-481.62 373.83,-481.62"/>
<text text-anchor="start" x="333.25" y="-469.07" font-family="Helvetica,sans-Serif" font-size="9.00">utilities.ts</text>
</a>
</g>
</g>
<!-- src/controllers/productController.ts&#45;&gt;src/utilities.ts -->
<g id="edge11" class="edge">
<title>src/controllers/productController.ts&#45;&gt;src/utilities.ts</title>
<path fill="none" stroke="#000000" stroke-width="2" stroke-opacity="0.200000" d="M285.51,-245C288.52,-246.9 291.24,-249.21 293.5,-252 303.93,-264.89 296.05,-385.34 301.5,-401 308.77,-421.89 324.17,-442.12 336.02,-455.6"/>
<polygon fill="#000000" fill-opacity="0.200000" stroke="#000000" stroke-width="2" stroke-opacity="0.200000" points="334.21,-456.73 339.79,-459.77 337.32,-453.91 334.21,-456.73"/>
</g>
<!-- src/utilities.ts&#45;&gt;src/components/user.ts -->
<g id="edge66" class="edge">
<title>src/utilities.ts&#45;&gt;src/components/user.ts</title>
<path fill="none" stroke="#000000" stroke-width="2" stroke-opacity="0.200000" d="M380.65,-464.81C388.62,-461.92 397.06,-458.05 404,-453 408.6,-449.65 407.33,-446.25 412,-443 415.31,-440.7 418.99,-438.73 422.79,-437.05"/>
<polygon fill="#000000" fill-opacity="0.200000" stroke="#000000" stroke-width="2" stroke-opacity="0.200000" points="423.52,-439.02 428.37,-434.91 422.02,-435.1 423.52,-439.02"/>
</g>
<!-- src/controllers/reviewController.ts -->
<g id="node13" class="node">
<title>src/controllers/reviewController.ts</title>
<g id="a_node13"><a xlink:href="src/controllers/reviewController.ts" xlink:title="reviewController.ts">
<path fill="#ddfeff" stroke="black" d="M276.83,-308.62C276.83,-308.62 197.17,-308.62 197.17,-308.62 193.96,-308.62 190.75,-305.42 190.75,-302.21 190.75,-302.21 190.75,-295.79 190.75,-295.79 190.75,-292.58 193.96,-289.38 197.17,-289.38 197.17,-289.38 276.83,-289.38 276.83,-289.38 280.04,-289.38 283.25,-292.58 283.25,-295.79 283.25,-295.79 283.25,-302.21 283.25,-302.21 283.25,-305.42 280.04,-308.62 276.83,-308.62"/>
<text text-anchor="start" x="198.75" y="-296.07" font-family="Helvetica,sans-Serif" font-size="9.00">reviewController.ts</text>
</a>
</g>
</g>
<!-- src/controllers/reviewController.ts&#45;&gt;src/components/review.ts -->
<g id="edge12" class="edge">
<title>src/controllers/reviewController.ts&#45;&gt;src/components/review.ts</title>
<path fill="none" stroke="#000000" stroke-width="2" stroke-opacity="0.200000" d="M283.5,-305.77C287.32,-307.88 290.76,-310.57 293.5,-314 306.69,-330.5 286.25,-489.38 301.5,-504 334.38,-535.53 361.21,-519.63 404,-504 419.69,-498.27 433.95,-485.67 443.78,-475.25"/>
<polygon fill="#000000" fill-opacity="0.200000" stroke="#000000" stroke-width="2" stroke-opacity="0.200000" points="445.09,-476.94 447.55,-471.07 441.97,-474.13 445.09,-476.94"/>
</g>
<!-- src/controllers/reviewController.ts&#45;&gt;src/components/user.ts -->
<g id="edge13" class="edge">
<title>src/controllers/reviewController.ts&#45;&gt;src/components/user.ts</title>
<path fill="none" stroke="#000000" stroke-width="2" stroke-opacity="0.200000" d="M283.66,-305.99C287.39,-308.07 290.77,-310.69 293.5,-314 309.23,-333.08 283.56,-407.98 301.5,-425 318.2,-440.85 381.55,-436.96 422.17,-432.56"/>
<polygon fill="#000000" fill-opacity="0.200000" stroke="#000000" stroke-width="2" stroke-opacity="0.200000" points="422.23,-434.67 427.95,-431.91 421.76,-430.5 422.23,-434.67"/>
</g>
<!-- src/controllers/reviewController.ts&#45;&gt;src/dao/productDAO.ts -->
<g id="edge14" class="edge">
<title>src/controllers/reviewController.ts&#45;&gt;src/dao/productDAO.ts</title>
<path fill="none" stroke="#000000" stroke-width="2" stroke-opacity="0.200000" d="M275.32,-288.94C281.4,-287.29 287.63,-285.6 293.5,-284 297.75,-282.84 302.18,-281.63 306.61,-280.42"/>
<polygon fill="#000000" fill-opacity="0.200000" stroke="#000000" stroke-width="2" stroke-opacity="0.200000" points="306.94,-282.51 312.17,-278.89 305.83,-278.46 306.94,-282.51"/>
</g>
<!-- src/controllers/reviewController.ts&#45;&gt;src/errors/productError.ts -->
<g id="edge16" class="edge">
<title>src/controllers/reviewController.ts&#45;&gt;src/errors/productError.ts</title>
<path fill="none" stroke="#000000" stroke-width="2" stroke-opacity="0.200000" d="M283.49,-291.87C287.26,-289.82 290.69,-287.24 293.5,-284 312.84,-261.66 280.36,-238.65 301.5,-218 317.87,-202.01 381.4,-211.63 404,-208 406.22,-207.64 408.48,-207.25 410.76,-206.83"/>
<polygon fill="#000000" fill-opacity="0.200000" stroke="#000000" stroke-width="2" stroke-opacity="0.200000" points="411.13,-208.9 416.61,-205.69 410.32,-204.78 411.13,-208.9"/>
</g>
<!-- src/dao/reviewDAO.ts -->
<g id="node14" class="node">
<title>src/dao/reviewDAO.ts</title>
<g id="a_node14"><a xlink:href="src/dao/reviewDAO.ts" xlink:title="reviewDAO.ts">
<path fill="#ddfeff" stroke="black" d="M381.71,-370.62C381.71,-370.62 323.79,-370.62 323.79,-370.62 320.58,-370.62 317.38,-367.42 317.38,-364.21 317.38,-364.21 317.38,-357.79 317.38,-357.79 317.38,-354.58 320.58,-351.38 323.79,-351.38 323.79,-351.38 381.71,-351.38 381.71,-351.38 384.92,-351.38 388.12,-354.58 388.12,-357.79 388.12,-357.79 388.12,-364.21 388.12,-364.21 388.12,-367.42 384.92,-370.62 381.71,-370.62"/>
<text text-anchor="start" x="325.38" y="-358.07" font-family="Helvetica,sans-Serif" font-size="9.00">reviewDAO.ts</text>
</a>
</g>
</g>
<!-- src/controllers/reviewController.ts&#45;&gt;src/dao/reviewDAO.ts -->
<g id="edge15" class="edge">
<title>src/controllers/reviewController.ts&#45;&gt;src/dao/reviewDAO.ts</title>
<path fill="none" stroke="#000000" stroke-width="2" stroke-opacity="0.200000" d="M283.62,-306.79C287.26,-308.71 290.63,-311.08 293.5,-314 303.77,-324.46 291.37,-335.4 301.5,-346 303.74,-348.34 306.33,-350.32 309.12,-352"/>
<polygon fill="#000000" fill-opacity="0.200000" stroke="#000000" stroke-width="2" stroke-opacity="0.200000" points="307.87,-353.73 314.19,-354.44 309.7,-349.94 307.87,-353.73"/>
</g>
<!-- src/errors/reviewError.ts -->
<g id="node15" class="node">
<title>src/errors/reviewError.ts</title>
<g id="a_node15"><a xlink:href="src/errors/reviewError.ts" xlink:title="reviewError.ts">
<path fill="#ddfeff" stroke="black" d="M488.08,-236.62C488.08,-236.62 428.67,-236.62 428.67,-236.62 425.46,-236.62 422.25,-233.42 422.25,-230.21 422.25,-230.21 422.25,-223.79 422.25,-223.79 422.25,-220.58 425.46,-217.38 428.67,-217.38 428.67,-217.38 488.08,-217.38 488.08,-217.38 491.29,-217.38 494.5,-220.58 494.5,-223.79 494.5,-223.79 494.5,-230.21 494.5,-230.21 494.5,-233.42 491.29,-236.62 488.08,-236.62"/>
<text text-anchor="start" x="430.25" y="-224.07" font-family="Helvetica,sans-Serif" font-size="9.00">reviewError.ts</text>
</a>
</g>
</g>
<!-- src/controllers/reviewController.ts&#45;&gt;src/errors/reviewError.ts -->
<g id="edge17" class="edge">
<title>src/controllers/reviewController.ts&#45;&gt;src/errors/reviewError.ts</title>
<path fill="none" stroke="#000000" stroke-width="2" stroke-opacity="0.200000" d="M283.64,-291.62C287.33,-289.62 290.7,-287.12 293.5,-284 308.82,-266.92 284.35,-248.25 301.5,-233 317.45,-218.82 372.82,-219.82 413.04,-222.69"/>
<polygon fill="#000000" fill-opacity="0.200000" stroke="#000000" stroke-width="2" stroke-opacity="0.200000" points="412.73,-224.77 418.87,-223.14 413.05,-220.59 412.73,-224.77"/>
</g>
<!-- src/dao/reviewDAO.ts&#45;&gt;src/components/review.ts -->
<g id="edge29" class="edge">
<title>src/dao/reviewDAO.ts&#45;&gt;src/components/review.ts</title>
<path fill="none" stroke="#000000" stroke-width="2" stroke-opacity="0.200000" d="M388.52,-364.89C394.42,-367.04 399.94,-370.25 404,-375 424.06,-398.47 392.5,-420.06 412,-444 414.94,-447.61 418.76,-450.35 422.95,-452.44"/>
<polygon fill="#000000" fill-opacity="0.200000" stroke="#000000" stroke-width="2" stroke-opacity="0.200000" points="422.13,-454.38 428.48,-454.6 423.66,-450.47 422.13,-454.38"/>
</g>
<!-- src/dao/reviewDAO.ts&#45;&gt;src/components/user.ts -->
<g id="edge30" class="edge">
<title>src/dao/reviewDAO.ts&#45;&gt;src/components/user.ts</title>
<path fill="none" stroke="#000000" stroke-width="2" stroke-opacity="0.200000" d="M362.3,-370.76C372.91,-382.32 392.05,-401.47 412,-413 415.41,-414.97 419.11,-416.72 422.87,-418.27"/>
<polygon fill="#000000" fill-opacity="0.200000" stroke="#000000" stroke-width="2" stroke-opacity="0.200000" points="421.95,-420.17 428.31,-420.29 423.42,-416.23 421.95,-420.17"/>
</g>
<!-- src/dao/reviewDAO.ts&#45;&gt;src/db/db.ts -->
<g id="edge31" class="edge">
<title>src/dao/reviewDAO.ts&#45;&gt;src/db/db.ts</title>
<path fill="none" stroke="#000000" stroke-width="2" stroke-opacity="0.200000" d="M388.57,-356.7C394.54,-354.42 400.07,-351.02 404,-346 415.72,-331.02 406.62,-193.24 412,-175 418.72,-152.22 433.39,-129.07 444.24,-113.98"/>
<polygon fill="#000000" fill-opacity="0.200000" stroke="#000000" stroke-width="2" stroke-opacity="0.200000" points="445.82,-115.37 447.7,-109.3 442.45,-112.87 445.82,-115.37"/>
</g>
<!-- src/controllers/userController.ts -->
<g id="node16" class="node">
<title>src/controllers/userController.ts</title>
<g id="a_node16"><a xlink:href="src/controllers/userController.ts" xlink:title="userController.ts">
<path fill="#ddfeff" stroke="black" d="M273.08,-339.62C273.08,-339.62 200.92,-339.62 200.92,-339.62 197.71,-339.62 194.5,-336.42 194.5,-333.21 194.5,-333.21 194.5,-326.79 194.5,-326.79 194.5,-323.58 197.71,-320.38 200.92,-320.38 200.92,-320.38 273.08,-320.38 273.08,-320.38 276.29,-320.38 279.5,-323.58 279.5,-326.79 279.5,-326.79 279.5,-333.21 279.5,-333.21 279.5,-336.42 276.29,-339.62 273.08,-339.62"/>
<text text-anchor="start" x="202.5" y="-327.07" font-family="Helvetica,sans-Serif" font-size="9.00">userController.ts</text>
</a>
</g>
</g>
<!-- src/controllers/userController.ts&#45;&gt;src/components/user.ts -->
<g id="edge18" class="edge">
<title>src/controllers/userController.ts&#45;&gt;src/components/user.ts</title>
<path fill="none" stroke="#000000" stroke-width="2" stroke-opacity="0.200000" d="M258.59,-340.12C270.83,-347.27 285.5,-358.06 293.5,-372 300.96,-385.01 290.29,-429.05 301.5,-439 318.76,-454.32 381.92,-444.42 422.35,-436.05"/>
<polygon fill="#000000" fill-opacity="0.200000" stroke="#000000" stroke-width="2" stroke-opacity="0.200000" points="422.71,-438.12 428.15,-434.82 421.84,-434.02 422.71,-438.12"/>
</g>
<!-- src/controllers/userController.ts&#45;&gt;src/utilities.ts -->
<g id="edge21" class="edge">
<title>src/controllers/userController.ts&#45;&gt;src/utilities.ts</title>
<path fill="none" stroke="#000000" stroke-width="2" stroke-opacity="0.200000" d="M258.68,-340.06C270.97,-347.19 285.64,-357.98 293.5,-372 302.34,-387.78 290.5,-438.64 301.5,-453 305.4,-458.09 310.83,-461.82 316.69,-464.54"/>
<polygon fill="#000000" fill-opacity="0.200000" stroke="#000000" stroke-width="2" stroke-opacity="0.200000" points="315.65,-466.4 322.01,-466.59 317.16,-462.48 315.65,-466.4"/>
</g>
<!-- src/dao/userDAO.ts -->
<g id="node17" class="node">
<title>src/dao/userDAO.ts</title>
<g id="a_node17"><a xlink:href="src/dao/userDAO.ts" xlink:title="userDAO.ts">
<path fill="#ddfeff" stroke="black" d="M377.96,-339.62C377.96,-339.62 327.54,-339.62 327.54,-339.62 324.33,-339.62 321.12,-336.42 321.12,-333.21 321.12,-333.21 321.12,-326.79 321.12,-326.79 321.12,-323.58 324.33,-320.38 327.54,-320.38 327.54,-320.38 377.96,-320.38 377.96,-320.38 381.17,-320.38 384.38,-323.58 384.38,-326.79 384.38,-326.79 384.38,-333.21 384.38,-333.21 384.38,-336.42 381.17,-339.62 377.96,-339.62"/>
<text text-anchor="start" x="329.12" y="-327.07" font-family="Helvetica,sans-Serif" font-size="9.00">userDAO.ts</text>
</a>
</g>
</g>
<!-- src/controllers/userController.ts&#45;&gt;src/dao/userDAO.ts -->
<g id="edge19" class="edge">
<title>src/controllers/userController.ts&#45;&gt;src/dao/userDAO.ts</title>
<path fill="none" stroke="#000000" stroke-width="2" stroke-opacity="0.200000" d="M279.71,-330C290.21,-330 301.44,-330 311.85,-330"/>
<polygon fill="#000000" fill-opacity="0.200000" stroke="#000000" stroke-width="2" stroke-opacity="0.200000" points="311.71,-332.1 317.71,-330 311.71,-327.9 311.71,-332.1"/>
</g>
<!-- src/errors/userError.ts -->
<g id="node18" class="node">
<title>src/errors/userError.ts</title>
<g id="a_node18"><a xlink:href="src/errors/userError.ts" xlink:title="userError.ts">
<path fill="#ddfeff" stroke="black" d="M484.33,-298.62C484.33,-298.62 432.42,-298.62 432.42,-298.62 429.21,-298.62 426,-295.42 426,-292.21 426,-292.21 426,-285.79 426,-285.79 426,-282.58 429.21,-279.38 432.42,-279.38 432.42,-279.38 484.33,-279.38 484.33,-279.38 487.54,-279.38 490.75,-282.58 490.75,-285.79 490.75,-285.79 490.75,-292.21 490.75,-292.21 490.75,-295.42 487.54,-298.62 484.33,-298.62"/>
<text text-anchor="start" x="434" y="-286.07" font-family="Helvetica,sans-Serif" font-size="9.00">userError.ts</text>
</a>
</g>
</g>
<!-- src/controllers/userController.ts&#45;&gt;src/errors/userError.ts -->
<g id="edge20" class="edge">
<title>src/controllers/userController.ts&#45;&gt;src/errors/userError.ts</title>
<path fill="none" stroke="#000000" stroke-width="2" stroke-opacity="0.200000" d="M279.73,-324.71C284.97,-322.44 289.78,-319.31 293.5,-315 303.44,-303.48 290.13,-257.11 301.5,-247 318.52,-231.86 385.75,-233.37 404,-247 414.03,-254.49 403.29,-265.01 412,-274 413.79,-275.84 415.8,-277.46 417.97,-278.88"/>
<polygon fill="#000000" fill-opacity="0.200000" stroke="#000000" stroke-width="2" stroke-opacity="0.200000" points="416.82,-280.65 423.11,-281.57 418.77,-276.93 416.82,-280.65"/>
</g>
<!-- src/dao/userDAO.ts&#45;&gt;src/components/user.ts -->
<g id="edge32" class="edge">
<title>src/dao/userDAO.ts&#45;&gt;src/components/user.ts</title>
<path fill="none" stroke="#000000" stroke-width="2" stroke-opacity="0.200000" d="M384.66,-333.29C391.98,-335.52 399.08,-339.15 404,-345 423.58,-368.3 392.76,-389.42 412,-413 414.94,-416.6 418.77,-419.35 422.96,-421.44"/>
<polygon fill="#000000" fill-opacity="0.200000" stroke="#000000" stroke-width="2" stroke-opacity="0.200000" points="422.14,-423.37 428.49,-423.6 423.67,-419.46 422.14,-423.37"/>
</g>
<!-- src/dao/userDAO.ts&#45;&gt;src/errors/userError.ts -->
<g id="edge34" class="edge">
<title>src/dao/userDAO.ts&#45;&gt;src/errors/userError.ts</title>
<path fill="none" stroke="#000000" stroke-width="2" stroke-opacity="0.200000" d="M384.85,-321.58C391.25,-319.61 397.89,-317.38 404,-315 412.93,-311.52 422.42,-307.14 430.88,-302.96"/>
<polygon fill="#000000" fill-opacity="0.200000" stroke="#000000" stroke-width="2" stroke-opacity="0.200000" points="431.82,-304.84 436.23,-300.27 429.93,-301.09 431.82,-304.84"/>
</g>
<!-- src/dao/userDAO.ts&#45;&gt;src/db/db.ts -->
<g id="edge33" class="edge">
<title>src/dao/userDAO.ts&#45;&gt;src/db/db.ts</title>
<path fill="none" stroke="#000000" stroke-width="2" stroke-opacity="0.200000" d="M384.64,-326.99C392.05,-324.76 399.2,-321.07 404,-315 413.66,-302.78 407.52,-189.92 412,-175 418.84,-152.26 433.48,-129.1 444.3,-113.99"/>
<polygon fill="#000000" fill-opacity="0.200000" stroke="#000000" stroke-width="2" stroke-opacity="0.200000" points="445.88,-115.39 447.75,-109.31 442.5,-112.9 445.88,-115.39"/>
</g>
<!-- src/db/cleanup.ts -->
<g id="node20" class="node">
<title>src/db/cleanup.ts</title>
<g id="a_node20"><a xlink:href="src/db/cleanup.ts" xlink:title="cleanup.ts">
<path fill="#ddfeff" stroke="black" d="M375.71,-106.62C375.71,-106.62 329.79,-106.62 329.79,-106.62 326.58,-106.62 323.38,-103.42 323.38,-100.21 323.38,-100.21 323.38,-93.79 323.38,-93.79 323.38,-90.58 326.58,-87.38 329.79,-87.38 329.79,-87.38 375.71,-87.38 375.71,-87.38 378.92,-87.38 382.12,-90.58 382.12,-93.79 382.12,-93.79 382.12,-100.21 382.12,-100.21 382.12,-103.42 378.92,-106.62 375.71,-106.62"/>
<text text-anchor="start" x="331.38" y="-94.08" font-family="Helvetica,sans-Serif" font-size="9.00">cleanup.ts</text>
</a>
</g>
</g>
<!-- src/db/cleanup.ts&#45;&gt;src/db/db.ts -->
<g id="edge35" class="edge">
<title>src/db/cleanup.ts&#45;&gt;src/db/db.ts</title>
<path fill="none" stroke="#000000" stroke-width="2" stroke-opacity="0.200000" d="M382.62,-97C394.97,-97 409.52,-97 422.47,-97"/>
<polygon fill="#000000" fill-opacity="0.200000" stroke="#000000" stroke-width="2" stroke-opacity="0.200000" points="422.12,-99.1 428.12,-97 422.12,-94.9 422.12,-99.1"/>
</g>
<!-- src/helper.ts -->
<g id="node21" class="node">
<title>src/helper.ts</title>
<g id="a_node21"><a xlink:href="src/helper.ts" xlink:title="helper.ts">
<path fill="#ddfeff" stroke="black" d="M257.58,-210.62C257.58,-210.62 216.42,-210.62 216.42,-210.62 213.21,-210.62 210,-207.42 210,-204.21 210,-204.21 210,-197.79 210,-197.79 210,-194.58 213.21,-191.38 216.42,-191.38 216.42,-191.38 257.58,-191.38 257.58,-191.38 260.79,-191.38 264,-194.58 264,-197.79 264,-197.79 264,-204.21 264,-204.21 264,-207.42 260.79,-210.62 257.58,-210.62"/>
<text text-anchor="start" x="219" y="-198.07" font-family="Helvetica,sans-Serif" font-size="9.00">helper.ts</text>
</a>
</g>
</g>
<!-- src/helper.ts&#45;&gt;node_modules/express&#45;validator -->
<g id="edge36" class="edge">
<title>src/helper.ts&#45;&gt;node_modules/express&#45;validator</title>
<path fill="none" stroke="#000000" stroke-opacity="0.200000" d="M248.59,-191.25C261.51,-178.67 282.93,-155.49 293.5,-131 303.29,-108.32 290.4,-98.07 301.5,-76 308.59,-61.9 321.19,-49.38 332,-40.39"/>
<polygon fill="#000000" fill-opacity="0.200000" stroke="#000000" stroke-opacity="0.200000" points="333.21,-42.11 336.59,-36.72 330.59,-38.83 333.21,-42.11"/>
</g>
<!-- src/routers/auth.ts -->
<g id="node22" class="node">
<title>src/routers/auth.ts</title>
<g id="a_node22"><a xlink:href="src/routers/auth.ts" xlink:title="auth.ts">
<path fill="#ddfeff" stroke="black" d="M257.58,-472.62C257.58,-472.62 216.42,-472.62 216.42,-472.62 213.21,-472.62 210,-469.42 210,-466.21 210,-466.21 210,-459.79 210,-459.79 210,-456.58 213.21,-453.38 216.42,-453.38 216.42,-453.38 257.58,-453.38 257.58,-453.38 260.79,-453.38 264,-456.58 264,-459.79 264,-459.79 264,-466.21 264,-466.21 264,-469.42 260.79,-472.62 257.58,-472.62"/>
<text text-anchor="start" x="223.12" y="-460.07" font-family="Helvetica,sans-Serif" font-size="9.00">auth.ts</text>
</a>
</g>
</g>
<!-- src/routers/auth.ts&#45;&gt;src/components/user.ts -->
<g id="edge37" class="edge">
<title>src/routers/auth.ts&#45;&gt;src/components/user.ts</title>
<path fill="none" stroke="#000000" stroke-width="2" stroke-opacity="0.200000" d="M245.32,-472.68C255.98,-485.88 277.18,-508.93 301.5,-518 322.84,-525.96 387.06,-533.23 404,-518 416.46,-506.79 401.48,-456.04 412,-443 414.92,-439.38 418.74,-436.63 422.92,-434.53"/>
<polygon fill="#000000" fill-opacity="0.200000" stroke="#000000" stroke-width="2" stroke-opacity="0.200000" points="423.63,-436.51 428.45,-432.37 422.1,-432.6 423.63,-436.51"/>
</g>
<!-- src/routers/auth.ts&#45;&gt;src/utilities.ts -->
<g id="edge39" class="edge">
<title>src/routers/auth.ts&#45;&gt;src/utilities.ts</title>
<path fill="none" stroke="#000000" stroke-width="2" stroke-opacity="0.200000" d="M264.38,-465.09C279.78,-466.31 299.4,-467.86 316.15,-469.18"/>
<polygon fill="#000000" fill-opacity="0.200000" stroke="#000000" stroke-width="2" stroke-opacity="0.200000" points="315.95,-471.27 322.1,-469.65 316.28,-467.09 315.95,-471.27"/>
</g>
<!-- src/routers/auth.ts&#45;&gt;src/dao/userDAO.ts -->
<g id="edge38" class="edge">
<title>src/routers/auth.ts&#45;&gt;src/dao/userDAO.ts</title>
<path fill="none" stroke="#000000" stroke-width="2" stroke-opacity="0.200000" d="M244.95,-453.09C256.34,-436.53 279.12,-401.88 293.5,-370 298.3,-359.37 293.17,-353.17 301.5,-345 304.71,-341.85 308.55,-339.36 312.66,-337.39"/>
<polygon fill="#000000" fill-opacity="0.200000" stroke="#000000" stroke-width="2" stroke-opacity="0.200000" points="313.15,-339.45 317.97,-335.31 311.62,-335.54 313.15,-339.45"/>
</g>
<!-- src/routers/cartRoutes.ts -->
<g id="node23" class="node">
<title>src/routers/cartRoutes.ts</title>
<g id="a_node23"><a xlink:href="src/routers/cartRoutes.ts" xlink:title="cartRoutes.ts">
<path fill="#ddfeff" stroke="black" d="M158.21,-433.62C158.21,-433.62 100.29,-433.62 100.29,-433.62 97.08,-433.62 93.88,-430.42 93.88,-427.21 93.88,-427.21 93.88,-420.79 93.88,-420.79 93.88,-417.58 97.08,-414.38 100.29,-414.38 100.29,-414.38 158.21,-414.38 158.21,-414.38 161.42,-414.38 164.62,-417.58 164.62,-420.79 164.62,-420.79 164.62,-427.21 164.62,-427.21 164.62,-430.42 161.42,-433.62 158.21,-433.62"/>
<text text-anchor="start" x="101.88" y="-421.07" font-family="Helvetica,sans-Serif" font-size="9.00">cartRoutes.ts</text>
</a>
</g>
</g>
<!-- src/routers/cartRoutes.ts&#45;&gt;node_modules/express&#45;validator -->
<g id="edge44" class="edge">
<title>src/routers/cartRoutes.ts&#45;&gt;node_modules/express&#45;validator</title>
<path fill="none" stroke="#000000" stroke-opacity="0.200000" d="M165.05,-415.88C167.92,-414.04 170.49,-411.77 172.5,-409 194.21,-379.03 157.94,-105.34 180.5,-76 184.45,-70.87 256.35,-51.09 305.72,-38"/>
<polygon fill="#000000" fill-opacity="0.200000" stroke="#000000" stroke-opacity="0.200000" points="306.1,-40.08 311.36,-36.51 305.03,-36.02 306.1,-40.08"/>
</g>
<!-- src/routers/cartRoutes.ts&#45;&gt;src/components/cart.ts -->
<g id="edge40" class="edge">
<title>src/routers/cartRoutes.ts&#45;&gt;src/components/cart.ts</title>
<path fill="none" stroke="#000000" stroke-width="2" stroke-opacity="0.200000" d="M164.98,-432.74C167.79,-434.46 170.36,-436.53 172.5,-439 184.37,-452.71 167.01,-466.88 180.5,-479 217.49,-512.24 367.09,-523.32 404,-490 416.93,-478.32 401.09,-425.58 412,-412 414.91,-408.37 418.73,-405.62 422.91,-403.52"/>
<polygon fill="#000000" fill-opacity="0.200000" stroke="#000000" stroke-width="2" stroke-opacity="0.200000" points="423.61,-405.5 428.44,-401.36 422.08,-401.59 423.61,-405.5"/>
</g>
<!-- src/routers/cartRoutes.ts&#45;&gt;src/controllers/cartController.ts -->
<g id="edge41" class="edge">
<title>src/routers/cartRoutes.ts&#45;&gt;src/controllers/cartController.ts</title>
<path fill="none" stroke="#000000" stroke-width="2" stroke-opacity="0.200000" d="M164.94,-415.8C167.83,-413.97 170.44,-411.73 172.5,-409 189.4,-386.61 162.75,-304.73 180.5,-283 182.65,-280.37 185.2,-278.18 188.02,-276.35"/>
<polygon fill="#000000" fill-opacity="0.200000" stroke="#000000" stroke-width="2" stroke-opacity="0.200000" points="188.89,-278.26 193.29,-273.68 186.99,-274.52 188.89,-278.26"/>
</g>
<!-- src/routers/cartRoutes.ts&#45;&gt;src/helper.ts -->
<g id="edge42" class="edge">
<title>src/routers/cartRoutes.ts&#45;&gt;src/helper.ts</title>
<path fill="none" stroke="#000000" stroke-width="2" stroke-opacity="0.200000" d="M165,-415.85C167.88,-414.01 170.47,-411.76 172.5,-409 185.24,-391.73 167.1,-232.77 180.5,-216 185.62,-209.59 193.19,-205.75 201.09,-203.49"/>
<polygon fill="#000000" fill-opacity="0.200000" stroke="#000000" stroke-width="2" stroke-opacity="0.200000" points="201.33,-205.58 206.74,-202.25 200.43,-201.48 201.33,-205.58"/>
</g>
<!-- src/routers/cartRoutes.ts&#45;&gt;src/routers/auth.ts -->
<g id="edge43" class="edge">
<title>src/routers/cartRoutes.ts&#45;&gt;src/routers/auth.ts</title>
<path fill="none" stroke="#000000" stroke-width="2" stroke-opacity="0.200000" d="M158.91,-434.09C163.46,-435.72 168.11,-437.39 172.5,-439 181.9,-442.45 192.06,-446.25 201.44,-449.79"/>
<polygon fill="#000000" fill-opacity="0.200000" stroke="#000000" stroke-width="2" stroke-opacity="0.200000" points="200.6,-451.72 206.95,-451.88 202.09,-447.79 200.6,-451.72"/>
</g>
<!-- src/routers/productRoutes.ts -->
<g id="node24" class="node">
<title>src/routers/productRoutes.ts</title>
<g id="a_node24"><a xlink:href="src/routers/productRoutes.ts" xlink:title="productRoutes.ts">
<path fill="#ddfeff" stroke="black" d="M166.08,-402.62C166.08,-402.62 92.42,-402.62 92.42,-402.62 89.21,-402.62 86,-399.42 86,-396.21 86,-396.21 86,-389.79 86,-389.79 86,-386.58 89.21,-383.38 92.42,-383.38 92.42,-383.38 166.08,-383.38 166.08,-383.38 169.29,-383.38 172.5,-386.58 172.5,-389.79 172.5,-389.79 172.5,-396.21 172.5,-396.21 172.5,-399.42 169.29,-402.62 166.08,-402.62"/>
<text text-anchor="start" x="94" y="-390.07" font-family="Helvetica,sans-Serif" font-size="9.00">productRoutes.ts</text>
</a>
</g>
</g>
<!-- src/routers/productRoutes.ts&#45;&gt;node_modules/express&#45;validator -->
<g id="edge49" class="edge">
<title>src/routers/productRoutes.ts&#45;&gt;node_modules/express&#45;validator</title>
<path fill="none" stroke="#000000" stroke-opacity="0.200000" d="M130.13,-383.16C129.7,-331.62 130.49,-93.39 180.5,-45 212.07,-14.45 263.78,-12.7 302.13,-16.76"/>
<polygon fill="#000000" fill-opacity="0.200000" stroke="#000000" stroke-opacity="0.200000" points="301.42,-18.79 307.62,-17.4 301.91,-14.62 301.42,-18.79"/>
</g>
<!-- src/routers/productRoutes.ts&#45;&gt;src/components/product.ts -->
<g id="edge45" class="edge">
<title>src/routers/productRoutes.ts&#45;&gt;src/components/product.ts</title>
<path fill="none" stroke="#000000" stroke-width="2" stroke-opacity="0.200000" d="M130.68,-383.08C132.74,-341.07 143.07,-178.53 180.5,-148 190,-140.25 491.12,-141.86 504.75,-154 537.95,-183.56 540.45,-326.24 540.24,-378.1"/>
<polygon fill="#000000" fill-opacity="0.200000" stroke="#000000" stroke-width="2" stroke-opacity="0.200000" points="538.14,-377.9 540.19,-383.92 542.34,-377.93 538.14,-377.9"/>
</g>
<!-- src/routers/productRoutes.ts&#45;&gt;src/controllers/productController.ts -->
<g id="edge46" class="edge">
<title>src/routers/productRoutes.ts&#45;&gt;src/controllers/productController.ts</title>
<path fill="none" stroke="#000000" stroke-width="2" stroke-opacity="0.200000" d="M168.67,-382.96C170.08,-381.78 171.37,-380.47 172.5,-379 189.77,-356.61 162.61,-273.9 180.5,-252 180.77,-251.67 181.04,-251.35 181.32,-251.03"/>
<polygon fill="#000000" fill-opacity="0.200000" stroke="#000000" stroke-width="2" stroke-opacity="0.200000" points="182.5,-252.79 185.71,-247.31 179.78,-249.59 182.5,-252.79"/>
</g>
<!-- src/routers/productRoutes.ts&#45;&gt;src/helper.ts -->
<g id="edge47" class="edge">
<title>src/routers/productRoutes.ts&#45;&gt;src/helper.ts</title>
<path fill="none" stroke="#000000" stroke-width="2" stroke-opacity="0.200000" d="M168.69,-382.98C170.09,-381.8 171.38,-380.48 172.5,-379 194.45,-350.13 157.75,-244.25 180.5,-216 185.65,-209.61 193.22,-205.77 201.12,-203.51"/>
<polygon fill="#000000" fill-opacity="0.200000" stroke="#000000" stroke-width="2" stroke-opacity="0.200000" points="201.36,-205.61 206.77,-202.28 200.46,-201.51 201.36,-205.61"/>
</g>
<!-- src/routers/productRoutes.ts&#45;&gt;src/routers/auth.ts -->
<g id="edge48" class="edge">
<title>src/routers/productRoutes.ts&#45;&gt;src/routers/auth.ts</title>
<path fill="none" stroke="#000000" stroke-width="2" stroke-opacity="0.200000" d="M162.65,-403.08C166.06,-404.56 169.41,-406.2 172.5,-408 190.79,-418.65 208.75,-434.9 220.88,-446.98"/>
<polygon fill="#000000" fill-opacity="0.200000" stroke="#000000" stroke-width="2" stroke-opacity="0.200000" points="219.16,-448.23 224.86,-451.04 222.15,-445.29 219.16,-448.23"/>
</g>
<!-- src/routers/reviewRoutes.ts -->
<g id="node25" class="node">
<title>src/routers/reviewRoutes.ts</title>
<g id="a_node25"><a xlink:href="src/routers/reviewRoutes.ts" xlink:title="reviewRoutes.ts">
<path fill="#ddfeff" stroke="black" d="M163.83,-495.62C163.83,-495.62 94.67,-495.62 94.67,-495.62 91.46,-495.62 88.25,-492.42 88.25,-489.21 88.25,-489.21 88.25,-482.79 88.25,-482.79 88.25,-479.58 91.46,-476.38 94.67,-476.38 94.67,-476.38 163.83,-476.38 163.83,-476.38 167.04,-476.38 170.25,-479.58 170.25,-482.79 170.25,-482.79 170.25,-489.21 170.25,-489.21 170.25,-492.42 167.04,-495.62 163.83,-495.62"/>
<text text-anchor="start" x="96.25" y="-483.07" font-family="Helvetica,sans-Serif" font-size="9.00">reviewRoutes.ts</text>
</a>
</g>
</g>
<!-- src/routers/reviewRoutes.ts&#45;&gt;node_modules/express&#45;validator -->
<g id="edge54" class="edge">
<title>src/routers/reviewRoutes.ts&#45;&gt;node_modules/express&#45;validator</title>
<path fill="none" stroke="#000000" stroke-opacity="0.200000" d="M167.69,-475.99C169.5,-474.55 171.13,-472.89 172.5,-471 194.59,-440.48 157.54,-161.88 180.5,-132 212.38,-90.51 255.58,-135.05 293.5,-99 301.34,-91.54 295.74,-85.16 301.5,-76 310.01,-62.46 322.83,-49.79 333.39,-40.58"/>
<polygon fill="#000000" fill-opacity="0.200000" stroke="#000000" stroke-opacity="0.200000" points="334.6,-42.31 337.82,-36.82 331.89,-39.1 334.6,-42.31"/>
</g>
<!-- src/routers/reviewRoutes.ts&#45;&gt;src/components/review.ts -->
<g id="edge50" class="edge">
<title>src/routers/reviewRoutes.ts&#45;&gt;src/components/review.ts</title>
<path fill="none" stroke="#000000" stroke-width="2" stroke-opacity="0.200000" d="M135.8,-496.07C143.73,-509.26 159.67,-531.82 180.5,-541 271.39,-581.07 316.68,-588.35 404,-541 428.75,-527.58 443.83,-497.16 451.38,-477.38"/>
<polygon fill="#000000" fill-opacity="0.200000" stroke="#000000" stroke-width="2" stroke-opacity="0.200000" points="453.35,-478.1 453.39,-471.75 449.4,-476.69 453.35,-478.1"/>
</g>
<!-- src/routers/reviewRoutes.ts&#45;&gt;src/controllers/reviewController.ts -->
<g id="edge51" class="edge">
<title>src/routers/reviewRoutes.ts&#45;&gt;src/controllers/reviewController.ts</title>
<path fill="none" stroke="#000000" stroke-width="2" stroke-opacity="0.200000" d="M167.63,-475.95C169.46,-474.51 171.1,-472.87 172.5,-471 193.37,-442.99 158.56,-341.19 180.5,-314 181.34,-312.96 182.25,-311.98 183.21,-311.07"/>
<polygon fill="#000000" fill-opacity="0.200000" stroke="#000000" stroke-width="2" stroke-opacity="0.200000" points="184.2,-312.94 187.82,-307.72 181.73,-309.55 184.2,-312.94"/>
</g>
<!-- src/routers/reviewRoutes.ts&#45;&gt;src/helper.ts -->
<g id="edge52" class="edge">
<title>src/routers/reviewRoutes.ts&#45;&gt;src/helper.ts</title>
<path fill="none" stroke="#000000" stroke-width="2" stroke-opacity="0.200000" d="M167.68,-475.98C169.49,-474.54 171.12,-472.89 172.5,-471 189.21,-448.1 162.92,-238.24 180.5,-216 185.59,-209.56 193.14,-205.71 201.04,-203.45"/>
<polygon fill="#000000" fill-opacity="0.200000" stroke="#000000" stroke-width="2" stroke-opacity="0.200000" points="201.28,-205.55 206.7,-202.22 200.39,-201.44 201.28,-205.55"/>
</g>
<!-- src/routers/reviewRoutes.ts&#45;&gt;src/routers/auth.ts -->
<g id="edge53" class="edge">
<title>src/routers/reviewRoutes.ts&#45;&gt;src/routers/auth.ts</title>
<path fill="none" stroke="#000000" stroke-width="2" stroke-opacity="0.200000" d="M170.53,-477.24C180.54,-475.06 191.19,-472.75 200.93,-470.63"/>
<polygon fill="#000000" fill-opacity="0.200000" stroke="#000000" stroke-width="2" stroke-opacity="0.200000" points="201.2,-472.72 206.61,-469.39 200.3,-468.61 201.2,-472.72"/>
</g>
<!-- src/routers/userRoutes.ts -->
<g id="node26" class="node">
<title>src/routers/userRoutes.ts</title>
<g id="a_node26"><a xlink:href="src/routers/userRoutes.ts" xlink:title="userRoutes.ts">
<path fill="#ddfeff" stroke="black" d="M160.08,-464.62C160.08,-464.62 98.42,-464.62 98.42,-464.62 95.21,-464.62 92,-461.42 92,-458.21 92,-458.21 92,-451.79 92,-451.79 92,-448.58 95.21,-445.38 98.42,-445.38 98.42,-445.38 160.08,-445.38 160.08,-445.38 163.29,-445.38 166.5,-448.58 166.5,-451.79 166.5,-451.79 166.5,-458.21 166.5,-458.21 166.5,-461.42 163.29,-464.62 160.08,-464.62"/>
<text text-anchor="start" x="100" y="-452.07" font-family="Helvetica,sans-Serif" font-size="9.00">userRoutes.ts</text>
</a>
</g>
</g>
<!-- src/routers/userRoutes.ts&#45;&gt;node_modules/express&#45;validator -->
<g id="edge59" class="edge">
<title>src/routers/userRoutes.ts&#45;&gt;node_modules/express&#45;validator</title>
<path fill="none" stroke="#000000" stroke-opacity="0.200000" d="M166.96,-445.56C169.06,-443.98 170.95,-442.14 172.5,-440 193.95,-410.39 159.38,-140.85 180.5,-111 211.54,-67.13 246.19,-93.49 293.5,-68 307.95,-60.22 322.94,-49.33 334.09,-40.6"/>
<polygon fill="#000000" fill-opacity="0.200000" stroke="#000000" stroke-opacity="0.200000" points="335.3,-42.32 338.68,-36.94 332.68,-39.04 335.3,-42.32"/>
</g>
<!-- src/routers/userRoutes.ts&#45;&gt;src/components/user.ts -->
<g id="edge55" class="edge">
<title>src/routers/userRoutes.ts&#45;&gt;src/components/user.ts</title>
<path fill="none" stroke="#000000" stroke-width="2" stroke-opacity="0.200000" d="M166.38,-464.92C168.61,-466.39 170.69,-468.07 172.5,-470 181.36,-479.43 171.12,-489.08 180.5,-498 216.78,-532.48 366.95,-559.65 404,-526 417.72,-513.54 400.44,-457.48 412,-443 414.9,-439.37 418.71,-436.6 422.89,-434.51"/>
<polygon fill="#000000" fill-opacity="0.200000" stroke="#000000" stroke-width="2" stroke-opacity="0.200000" points="423.59,-436.48 428.41,-432.34 422.06,-432.57 423.59,-436.48"/>
</g>
<!-- src/routers/userRoutes.ts&#45;&gt;src/controllers/userController.ts -->
<g id="edge56" class="edge">
<title>src/routers/userRoutes.ts&#45;&gt;src/controllers/userController.ts</title>
<path fill="none" stroke="#000000" stroke-width="2" stroke-opacity="0.200000" d="M166.74,-445.39C168.89,-443.85 170.85,-442.07 172.5,-440 191.48,-416.21 165.38,-398.41 180.5,-372 186.93,-360.78 197.68,-351.6 208.02,-344.71"/>
<polygon fill="#000000" fill-opacity="0.200000" stroke="#000000" stroke-width="2" stroke-opacity="0.200000" points="208.85,-346.67 212.84,-341.71 206.63,-343.1 208.85,-346.67"/>
</g>
<!-- src/routers/userRoutes.ts&#45;&gt;src/helper.ts -->
<g id="edge57" class="edge">
<title>src/routers/userRoutes.ts&#45;&gt;src/helper.ts</title>
<path fill="none" stroke="#000000" stroke-width="2" stroke-opacity="0.200000" d="M166.93,-445.54C169.04,-443.97 170.94,-442.13 172.5,-440 187.23,-419.92 165.01,-235.5 180.5,-216 185.61,-209.57 193.16,-205.73 201.06,-203.47"/>
<polygon fill="#000000" fill-opacity="0.200000" stroke="#000000" stroke-width="2" stroke-opacity="0.200000" points="201.3,-205.56 206.72,-202.23 200.41,-201.46 201.3,-205.56"/>
</g>
<!-- src/routers/userRoutes.ts&#45;&gt;src/routers/auth.ts -->
<g id="edge58" class="edge">
<title>src/routers/userRoutes.ts&#45;&gt;src/routers/auth.ts</title>
<path fill="none" stroke="#000000" stroke-width="2" stroke-opacity="0.200000" d="M166.94,-457.78C177.94,-458.61 189.97,-459.52 200.87,-460.34"/>
<polygon fill="#000000" fill-opacity="0.200000" stroke="#000000" stroke-width="2" stroke-opacity="0.200000" points="200.54,-462.42 206.69,-460.78 200.86,-458.24 200.54,-462.42"/>
</g>
<!-- src/routes.ts -->
<g id="node27" class="node">
<title>src/routes.ts</title>
<g id="a_node27"><a xlink:href="src/routes.ts" xlink:title="routes.ts">
<path fill="#ddfeff" stroke="black" d="M63.58,-448.62C63.58,-448.62 22.42,-448.62 22.42,-448.62 19.21,-448.62 16,-445.42 16,-442.21 16,-442.21 16,-435.79 16,-435.79 16,-432.58 19.21,-429.38 22.42,-429.38 22.42,-429.38 63.58,-429.38 63.58,-429.38 66.79,-429.38 70,-432.58 70,-435.79 70,-435.79 70,-442.21 70,-442.21 70,-445.42 66.79,-448.62 63.58,-448.62"/>
<text text-anchor="start" x="25" y="-436.07" font-family="Helvetica,sans-Serif" font-size="9.00">routes.ts</text>
</a>
</g>
</g>
<!-- src/routes.ts&#45;&gt;src/helper.ts -->
<g id="edge60" class="edge">
<title>src/routes.ts&#45;&gt;src/helper.ts</title>
<path fill="none" stroke="#000000" stroke-width="2" stroke-opacity="0.200000" d="M46.98,-429.07C58.11,-393.83 100.72,-273.77 180.5,-216 186.6,-211.58 193.93,-208.47 201.23,-206.27"/>
<polygon fill="#000000" fill-opacity="0.200000" stroke="#000000" stroke-width="2" stroke-opacity="0.200000" points="201.49,-208.37 206.78,-204.84 200.45,-204.3 201.49,-208.37"/>
</g>
<!-- src/routes.ts&#45;&gt;src/routers/auth.ts -->
<g id="edge61" class="edge">
<title>src/routes.ts&#45;&gt;src/routers/auth.ts</title>
<path fill="none" stroke="#000000" stroke-width="2" stroke-opacity="0.200000" d="M46.01,-448.84C49.59,-463.46 58.57,-490.41 78,-502 114.07,-523.52 132.08,-513.42 172.5,-502 189,-497.34 205.43,-487.05 217.44,-478.22"/>
<polygon fill="#000000" fill-opacity="0.200000" stroke="#000000" stroke-width="2" stroke-opacity="0.200000" points="218.42,-480.12 221.91,-474.8 215.86,-476.78 218.42,-480.12"/>
</g>
<!-- src/routes.ts&#45;&gt;src/routers/cartRoutes.ts -->
<g id="edge62" class="edge">
<title>src/routes.ts&#45;&gt;src/routers/cartRoutes.ts</title>
<path fill="none" stroke="#000000" stroke-width="2" stroke-opacity="0.200000" d="M70.2,-434.34C74.78,-433.52 79.67,-432.65 84.58,-431.77"/>
<polygon fill="#000000" fill-opacity="0.200000" stroke="#000000" stroke-width="2" stroke-opacity="0.200000" points="84.88,-433.86 90.42,-430.74 84.14,-429.72 84.88,-433.86"/>
</g>
<!-- src/routes.ts&#45;&gt;src/routers/productRoutes.ts -->
<g id="edge63" class="edge">
<title>src/routes.ts&#45;&gt;src/routers/productRoutes.ts</title>
<path fill="none" stroke="#000000" stroke-width="2" stroke-opacity="0.200000" d="M52.62,-429.06C59.01,-422.26 68.27,-413.51 78,-408 78.71,-407.6 79.43,-407.21 80.17,-406.82"/>
<polygon fill="#000000" fill-opacity="0.200000" stroke="#000000" stroke-width="2" stroke-opacity="0.200000" points="81,-408.75 85.58,-404.34 79.25,-404.93 81,-408.75"/>
</g>
<!-- src/routes.ts&#45;&gt;src/routers/reviewRoutes.ts -->
<g id="edge64" class="edge">
<title>src/routes.ts&#45;&gt;src/routers/reviewRoutes.ts</title>
<path fill="none" stroke="#000000" stroke-width="2" stroke-opacity="0.200000" d="M52.29,-448.97C58.66,-456.04 68.03,-465.25 78,-471 78.71,-471.41 79.43,-471.8 80.16,-472.19"/>
<polygon fill="#000000" fill-opacity="0.200000" stroke="#000000" stroke-width="2" stroke-opacity="0.200000" points="79.23,-474.08 85.55,-474.7 81,-470.27 79.23,-474.08"/>
</g>
<!-- src/routes.ts&#45;&gt;src/routers/userRoutes.ts -->
<g id="edge65" class="edge">
<title>src/routes.ts&#45;&gt;src/routers/userRoutes.ts</title>
<path fill="none" stroke="#000000" stroke-width="2" stroke-opacity="0.200000" d="M70.2,-443.97C74.21,-444.74 78.45,-445.54 82.74,-446.36"/>
<polygon fill="#000000" fill-opacity="0.200000" stroke="#000000" stroke-width="2" stroke-opacity="0.200000" points="82.29,-448.41 88.58,-447.47 83.08,-444.28 82.29,-448.41"/>
</g>
</g>
</svg>
